<svg width="29" height="32" viewBox="0 0 29 32" fill="none" xmlns="http://www.w3.org/2000/svg">
<path d="M3.2515 11.8033C3.27999 11.4483 3.44116 11.1171 3.7029 10.8755C3.96465 10.634 4.30776 10.4999 4.66392 10.5H24.3613C24.7174 10.4999 25.0605 10.634 25.3223 10.8755C25.584 11.1171 25.7452 11.4483 25.7737 11.8033L27.0161 27.2734C27.0474 27.6632 26.9976 28.0553 26.8699 28.425C26.7423 28.7947 26.5394 29.1339 26.2742 29.4214C26.009 29.7088 25.6871 29.9382 25.3289 30.0952C24.9706 30.2521 24.5838 30.3332 24.1927 30.3334H4.8325C4.44139 30.3332 4.05454 30.2521 3.6963 30.0952C3.33807 29.9382 3.01621 29.7088 2.75098 29.4214C2.48576 29.1339 2.28292 28.7947 2.15524 28.425C2.02756 28.0553 1.97779 27.6632 2.00908 27.2734L3.25008 11.8033H3.2515Z" stroke="white" stroke-width="3" stroke-linecap="round" stroke-linejoin="round"/>
<path d="M20.1793 14.75V7.66667C20.1793 6.16378 19.5823 4.72244 18.5196 3.65973C17.4569 2.59702 16.0155 2 14.5126 2C13.0097 2 11.5684 2.59702 10.5057 3.65973C9.44297 4.72244 8.84595 6.16378 8.84595 7.66667V14.75" stroke="white" stroke-width="3" stroke-linecap="round" stroke-linejoin="round"/>
</svg>
